<svg width="50" height="50" viewBox="0 0 50 50" fill="none" xmlns="http://www.w3.org/2000/svg">
<circle cx="25" cy="25" r="23.2526" stroke="white" stroke-opacity="0.48" stroke-width="3"/>
<g opacity="0.7">
<path d="M31.7634 25.3608C31.1162 26.6201 30.1522 27.6892 28.9662 28.4627C27.7803 29.2363 26.4134 29.6876 25 29.7724C23.5867 29.6876 22.2197 29.2363 21.0338 28.4627C19.8479 27.6892 18.8838 26.6201 18.2366 25.3608C15.9873 26.9966 14.413 29.3977 13.8097 32.1128C13.7697 32.298 13.7857 32.491 13.8558 32.6671C13.9258 32.8432 14.0467 32.9945 14.203 33.1016C17.3803 35.2849 21.1449 36.4537 25 36.4537C28.8552 36.4537 32.6197 35.2849 35.7971 33.1016C35.9534 32.9945 36.0742 32.8432 36.1443 32.6671C36.2143 32.491 36.2303 32.298 36.1903 32.1128C35.5871 29.3977 34.0128 26.9966 31.7634 25.3608V25.3608Z" fill="white"/>
<path d="M25.0001 13.5463C23.4812 13.5463 22.0245 14.1496 20.9506 15.2236C19.8766 16.2976 19.2732 17.7543 19.2732 19.2731C19.2732 22.3484 21.6785 26.9089 25.0001 26.9089C28.3216 26.9089 30.7269 22.3484 30.7269 19.2731C30.7269 17.7543 30.1235 16.2976 29.0496 15.2236C27.9756 14.1496 26.5189 13.5463 25.0001 13.5463V13.5463Z" fill="white"/>
</g>
</svg>
