<svg width="26" height="26" viewBox="0 0 26 26" fill="none" xmlns="http://www.w3.org/2000/svg">
<path d="M10.7895 18.7558L18.1633 13.2255L10.7895 7.69512V18.7558ZM13.2474 0.935791C6.45734 0.935791 0.957703 6.43543 0.957703 13.2255C0.957703 20.0155 6.45734 25.5152 13.2474 25.5152C20.0374 25.5152 25.5371 20.0155 25.5371 13.2255C25.5371 6.43543 20.0374 0.935791 13.2474 0.935791ZM13.2474 23.0572C7.82764 23.0572 3.41564 18.6452 3.41564 13.2255C3.41564 7.80573 7.82764 3.39373 13.2474 3.39373C18.6671 3.39373 23.0791 7.80573 23.0791 13.2255C23.0791 18.6452 18.6671 23.0572 13.2474 23.0572Z" fill="white"/>
</svg>
